# xmcd
#
# Track frame offsets:
#	150
#	17416
#	34939
#	49356
#	69490
#	79486
#	98734
#	112403
#	130067
#	145894
#	159708
#	168151
#	179004
#	192590
#	207080
#	223280
#	238752
#	256624
#	257432
#	258321
#
# Disc length: 3450
#
# Revision: 1
# Processed by: cddbd v1.5.1PL0 Copyright (c) Steve Scherf et al.
# Submitted via: VisiTrax 2.9.5.180 - For more info visit www.synapsa.com
# Normalized: r0:DSETVAR1
#
DISCID=2b0d7814
DTITLE=Various Artist - CDXMAS volume 1010 1998
DYEAR=1998
DGENRE=Christmas
TTITLE0=Vince Vance and The Valiants - All I want for christmas is you
TTITLE1=Vince Gill - Blue Christmas
TTITLE2=Collin Raye - What if Jesus comes back like that
TTITLE3=Joe Diffie - The christmas song
TTITLE4=Tammy Wynette - One happy christmas
TTITLE5=Collin Raye - It could happen again
TTITLE6=Clay Walker - Blue christmas
TTITLE7=Don Williams - Pretty little baby child
TTITLE8=Don Williams - 'Twas the night before christmas
TTITLE9=Dwight Yoakam - Silver bells
TTITLE10=Martina McBride - Let it snow let it snow
TTITLE11=Lonestar - All my love for christmas
TTITLE12=Kenny Chesney - Away in a manger
TTITLE13=Bellamy Brothers - It's so close to christmas (and I'm so far from home)
TTITLE14=Earl Thomas Conley - Christmas ain't the same
TTITLE15=Robert Earl Keen - Happ holidays y'all
TTITLE16=Keith Bryant - What will christmas be
TTITLE17=Martina McBride - Liners
TTITLE18=Martina McBride - Liners
TTITLE19=Martina McBride - Liners
EXTD=
EXTT0=
EXTT1=
EXTT2=
EXTT3=
EXTT4=
EXTT5=
EXTT6=
EXTT7=
EXTT8=
EXTT9=
EXTT10=
EXTT11=
EXTT12=
EXTT13=
EXTT14=
EXTT15=
EXTT16=
EXTT17=
EXTT18=
EXTT19=
PLAYORDER=
